Toy Story (1995)

A cowboy toy is profoundly threatened and jealous when a fancy spaceman toy supplants him as top toy in a boy's room.

Director: John Lasseter
Writers: John Lasseter (story), Pete Docter (story)
Stars: Tom Hanks, Tim Allen and Don Rickles

IMDb Top 250 | Nominated for 3 Oscars. Another 19 wins & 11 nominations
 
http://www.imdb.com/title/tt0114709/

Format                           : Matroska
File size                        : 6.23 GiB
Duration                         : 1h 21mn
Overall bit rate                 : 11.0 Mbps

Video
ID                               : 1
Format                           : AVC
Format/Info                      : Advanced Video Codec
Format profile                   : High@L4.1
Format settings, CABAC           : Yes
Format settings, ReFrames        : 4 frames
Codec ID                         : V_MPEG4/ISO/AVC
Duration                         : 1h 21mn
Bit rate                         : 7 744 Kbps
Width                            : 1 920 pixels
Height                           : 1 080 pixels
Display aspect ratio             : 16:9
Frame rate                       : 23.976 fps
Color space                      : YUV
Chroma subsampling               : 4:2:0
Bit depth                        : 8 bits
Scan type                        : Progressive
Bits/(Pixel*Frame)               : 0.156
Stream size                      : 4.39 GiB (71%)
Title                            : SKY Uk 3D Capture
Language                         : English

Audio #1
ID                               : 2
Format                           : DTS
Format/Info                      : Digital Theater Systems
Format profile                   : ES
Codec ID                         : A_DTS
Duration                         : 1h 21mn
Bit rate mode                    : Constant
Bit rate                         : 1 510 Kbps
Channel(s)                       : 6 channels
Channel positions                : Front: L C R, Side: L R, LFE
Sampling rate                    : 48.0 KHz
Bit depth                        : 24 bits
Compression mode                 : Lossy
Delay relative to video          : 23ms
Stream size                      : 877 MiB (14%)
Language                         : English

Audio #2
ID                               : 3
Format                           : DTS
Format/Info                      : Digital Theater Systems
Format profile                   : ES
Codec ID                         : A_DTS
Duration                         : 1h 21mn
Bit rate mode                    : Constant
Bit rate                         : 1 510 Kbps
Channel(s)                       : 6 channels
Channel positions                : Front: L C R, Side: L R, LFE
Sampling rate                    : 48.0 KHz
Bit depth                        : 24 bits
Compression mode                 : Lossy
Delay relative to video          : 39ms
Stream size                      : 877 MiB (14%)
Language                         : German

****************************************************************************

Toy Story 2 (1999)

When Woody is stolen by a toy collector, Buzz and his friends vow to rescue him, but Woody finds the idea of immortality in a museum tempting.

Directors: John Lasseter, Ash Brannon
Writers: John Lasseter (story), Pete Docter (story)
Stars: Tom Hanks, Tim Allen and Joan Cusack
 
http://www.imdb.com/title/tt0120363/

Format                           : MPEG-TS
File size                        : 7.27 GiB
Duration                         : 200ms
Overall bit rate                 : 2 301 Kbps
Maximum Overall bit rate         : 35.5 Mbps

Video
ID                               : 4113 (0x1011)
Menu ID                          : 1 (0x1)
Format                           : AVC
Format/Info                      : Advanced Video Codec
Format profile                   : Main@L4.0
Codec ID                         : 27

Audio #1
ID                               : 4352 (0x1100)
Menu ID                          : 1 (0x1)
Format                           : AC-3
Format/Info                      : Audio Coding 3
Mode extension                   : CM (complete main)
Codec ID                         : 129
Duration                         : 200ms
Bit rate mode                    : Constant
Bit rate                         : 448 Kbps
Channel(s)                       : 6 channels
Channel positions                : Front: L C R, Side: L R, LFE
Sampling rate                    : 48.0 KHz
Bit depth                        : 16 bits
Compression mode                 : Lossy
Stream size                      : 10.9 KiB (0%)
Language                         : English

Audio #2
ID                               : 4353 (0x1101)
Menu ID                          : 1 (0x1)
Format                           : AC-3
Format/Info                      : Audio Coding 3
Mode extension                   : ME (music and effects)
Codec ID                         : 129
Duration                         : 200ms
Bit rate mode                    : Constant
Bit rate                         : 192 Kbps
Channel(s)                       : 2 channels
Channel positions                : Front: L R
Sampling rate                    : 48.0 KHz
Bit depth                        : 16 bits
Compression mode                 : Lossy
Stream size                      : 4.69 KiB (0%)
Language                         : English

***************************************************************************

Toy Story 3 (2010)

The toys are mistakenly delivered to a day-care center instead of the attic right before Andy leaves for college, and it's up to Woody to convince the other toys that they weren't abandoned and to return home.

Director: Lee Unkrich
Writers: John Lasseter (story), Andrew Stanton (story)
Stars: Tom Hanks, Tim Allen and Joan Cusack

IMDb Top 250 | Won 2 Oscars. Another 28 wins & 39 nominations
 
http://www.imdb.com/title/tt0435761/

Format                           : MPEG-TS
File size                        : 7.37 GiB
Duration                         : 488ms
Overall bit rate                 : 3 951 Kbps
Maximum Overall bit rate         : 35.5 Mbps

Video
ID                               : 4113 (0x1011)
Menu ID                          : 1 (0x1)
Format                           : AVC
Format/Info                      : Advanced Video Codec
Format profile                   : Main@L4.0
Codec ID                         : 27

Audio #1
ID                               : 4352 (0x1100)
Menu ID                          : 1 (0x1)
Format                           : AC-3
Format/Info                      : Audio Coding 3
Mode extension                   : CM (complete main)
Codec ID                         : 129
Duration                         : 488ms
Bit rate mode                    : Constant
Bit rate                         : 448 Kbps
Channel(s)                       : 6 channels
Channel positions                : Front: L C R, Side: L R, LFE
Sampling rate                    : 48.0 KHz
Bit depth                        : 16 bits
Compression mode                 : Lossy
Stream size                      : 26.7 KiB (0%)
Language                         : English

Audio #2
ID                               : 4353 (0x1101)
Menu ID                          : 1 (0x1)
Format                           : AC-3
Format/Info                      : Audio Coding 3
Mode extension                   : ME (music and effects)
Codec ID                         : 129
Duration                         : 488ms
Bit rate mode                    : Constant
Bit rate                         : 192 Kbps
Channel(s)                       : 2 channels
Channel positions                : Front: L R
Sampling rate                    : 48.0 KHz
Bit depth                        : 16 bits
Compression mode                 : Lossy
Stream size                      : 11.4 KiB (0%)
Language                         : English